# xmcd
#
# Track frame offsets:
#	150
#	12502
#	25982
#	37467
#	48417
#	61302
#	74642
#	89304
#	102240
#	114697
#	124660
#	135367
#	148265
#	159172
#	170937
#	183302
#	195827
#	210217
#
# Disc length: 2979 seconds
#
# Revision: 3
# Processed by: cddbd v1.5.2PL0 Copyright (c) Steve Scherf et al.
# Submitted via: audiograbber 1.83.01
#
DISCID=040ba112
DTITLE=Various Artist - Cowboy Ballads
DYEAR=1998
DGENRE=Country
TTITLE0=Eddie Arnold - I'll Hold You In My Heart (Till I Can Hold You In My Arm
TTITLE0=s)
TTITLE1=Pee Wee King and His Golden West Cowboys - Tennesee Waltz
TTITLE2=Tex Ritter - Have I Told You Lately That I Love You
TTITLE3=Gene Autry - Red River Valley
TTITLE4=Merle Trvis - Sixteen Tons
TTITLE5=Jimmy Wakely - Moon Over Montana
TTITLE6=Red Foley - Old Shep
TTITLE7=Ernest Tubb - Have You Ever Been Lonely (Have You Ever Been Blue)
TTITLE8=Spade Cooley - Forgive Me One More Time
TTITLE9=Margaret Whiting and Jimmy Wakely - Slippin' Around
TTITLE10=Merle Travis - Divorce Me C.O.D.
TTITLE11=Al Dexter - Pistol Packin' Mama
TTITLE12=Hank Thompson - Humpty Dumpty Heart
TTITLE13=Jimmie Davis - You Are My Sunshine
TTITLE14=Hank Williams with his Drifting Cowboys - Honky Tonkin'
TTITLE15=Bill Monroe and His Bluegrass Boys - Molly and Tenbrooks (The Race Horse
TTITLE15=Song)
TTITLE16=Tex Ritter - Rye Whiskey
TTITLE17=Jimmy Wakely - Song of the sierra
EXTD=YEAR: 1998 ID3G: 2
EXTT0=
EXTT1=
EXTT2=
EXTT3=
EXTT4=
EXTT5=
EXTT6=
EXTT7=
EXTT8=
EXTT9=
EXTT10=
EXTT11=
EXTT12=
EXTT13=
EXTT14=
EXTT15=
EXTT16=
EXTT17=
PLAYORDER=
